<?xml version="1.0" encoding="UTF-8" standalone="no"?><!DOCTYPE svg PUBLIC "-//W3C//DTD SVG 1.1//EN" "http://www.w3.org/Graphics/SVG/1.1/DTD/svg11.dtd"><svg width="100%" height="100%" viewBox="0 0 745 356" version="1.1" xmlns="http://www.w3.org/2000/svg" xmlns:xlink="http://www.w3.org/1999/xlink" xml:space="preserve" xmlns:serif="http://www.serif.com/" style="fill-rule:evenodd;clip-rule:evenodd;stroke-linejoin:round;stroke-miterlimit:2;"><rect id="Artboard1" x="-395" y="-791" width="1536" height="2048" style="fill:none;"/><g id="Artboard11" serif:id="Artboard1"><g><path d="M198.63,73.728c1.464,1.952 2.734,4.003 3.808,6.248c0.488,-0.39 1.269,-0.781 1.66,-0.976c3.612,-1.757 0.683,-8.885 -3.613,-6.444l-1.855,1.172Zm-53.602,61.803c25.092,0 34.953,-37.687 49.794,-49.208c-0.976,-2.343 -2.246,-4.491 -3.612,-6.542c-15.036,13.864 -28.608,49.599 -46.085,49.599c-1.074,0 -1.074,-1.562 0,-1.562c3.32,0 7.421,-1.953 9.373,-3.71c-3.124,-1.074 -5.467,-1.855 -9.47,-1.855c-9.666,-0 -10.74,13.278 -0,13.278Zm28.9,-5.272c-2.929,0 -6.151,-0.488 -9.568,-1.465c-1.855,1.758 -3.906,3.222 -5.956,4.492c5.663,1.952 10.837,2.831 15.426,2.831c8.495,0 15.329,-2.929 20.406,-7.615c-5.077,0.195 -8.006,-0.098 -10.056,-0.293c-2.929,1.367 -6.347,2.05 -10.252,2.05Zm29.096,-4.687c4.1,-0.976 2.929,-6.932 -1.367,-5.858c-8.983,2.246 -18.454,1.074 -27.338,-2.538c-1.367,1.952 -2.832,3.808 -4.296,5.663c9.958,4.198 21.089,5.467 33.001,2.733Zm-50.771,-40.616c-0,-9.08 6.639,-17.477 17.574,-17.477c19.43,0 29.193,16.989 29.193,33.294c0,6.737 -1.659,13.376 -5.077,18.648c2.344,-0.195 4.785,-0.488 7.811,-1.367c2.441,-5.565 3.71,-11.618 3.71,-18.062c0,-19.234 -11.814,-39.055 -36.125,-39.055c-15.133,0 -24.214,12.01 -24.214,24.312c0,13.962 6.444,24.604 16.306,32.024c1.464,-1.659 2.929,-3.514 4.296,-5.467c-8.202,-6.151 -13.474,-15.231 -13.474,-26.85Z" style="fill:#272a69;"/><path d="M221.086,89.447c-0.293,3.515 2.539,6.346 6.347,6.346c3.71,0 6.932,-2.831 7.225,-6.346c0.293,-3.515 -2.539,-6.346 -6.249,-6.346c-3.808,-0 -7.03,2.831 -7.323,6.346Zm-18.062,36.125c4.296,-1.171 7.322,-2.733 9.47,-4.784c0.488,-1.464 1.855,-4.784 2.148,-5.565c0.391,-1.074 1.758,-0.683 1.465,0.391c-0.879,2.636 -3.71,8.494 -3.71,12.399c-0,4.882 2.441,7.225 6.248,7.225c3.808,0 6.932,-2.245 11.424,-6.736c0.976,-0.977 1.171,-2.832 -0,-4.004c-1.172,-1.171 -3.027,-0.976 -4.003,0c-2.734,2.734 -4.785,4.687 -5.956,4.687c-0.488,0 -0.976,-0.391 -0.976,-1.172c-0,-3.026 2.343,-10.642 6.053,-18.648c1.562,-3.515 1.074,-6.249 -1.562,-6.737c-1.465,-0.293 -3.222,0.098 -4.491,2.636c-2.93,5.565 -10.838,12.888 -17.477,14.45c-4.101,0.977 -2.929,6.932 1.367,5.858Z" style="fill:#272a69;"/><path d="M327.314,126.549c-0.195,-3.125 0.293,-6.542 1.074,-10.154c-2.538,3.319 -5.37,6.444 -7.03,8.103c-0.976,0.977 -1.171,2.832 0,4.004c1.172,1.171 3.027,0.976 4.004,-0l1.952,-1.953Zm26.85,-8.006c0.781,-0 1.66,-0.293 2.148,-0.586c5.273,-10.057 2.832,-15.231 -1.074,-15.231c-9.471,-0 -17.379,27.338 1.562,22.846c4.101,-0.976 2.929,-6.932 -1.367,-5.858c-0.683,0.196 -1.269,0.293 -1.757,0.293c-4.394,0 -2.148,-9.178 1.562,-11.228c0.879,-0.488 1.562,0.684 0.684,1.269c-2.344,1.563 -4.785,8.495 -1.758,8.495Zm-17.379,16.695c5.077,0 9.471,-2.636 14.06,-7.81c-2.539,-0.391 -4.296,-1.66 -5.468,-3.32c-3.32,3.515 -5.663,4.882 -7.713,4.882c-1.367,-0 -2.832,-0.488 -2.832,-4.687c0,-11.716 10.252,-31.536 15.72,-39.542c0.878,-1.27 2.05,-0.391 1.367,0.683c-6.054,9.861 -11.522,20.308 -14.646,31.829c8.494,-11.423 18.649,-27.826 18.942,-34.758c0.195,-3.71 -0.879,-5.663 -3.906,-5.663c-8.592,0 -24.311,33.489 -23.53,49.209c0.293,5.858 2.929,9.177 8.006,9.177Zm18.356,-26.361c-0.098,0.097 -0.098,0.097 -0.196,0.097c0.098,0 0.098,0 0.196,-0.097Z" style="fill:#272a69;"/><path d="M363.147,122.839c1.269,-3.125 3.222,-6.347 4.003,-7.616c0.683,-1.074 1.855,-0.39 1.269,0.586c-1.465,2.929 -4.882,7.811 -4.882,13.181c0,4.589 3.32,6.248 6.444,6.248c3.613,0 6.737,-1.366 9.764,-4.003c-0.293,-1.464 -0.391,-2.831 -0.098,-4.393c0.195,-1.074 1.66,-0.879 1.465,0.195c-0.684,4.296 0.976,8.201 5.467,8.201c3.808,0 6.737,-1.171 12.302,-6.736c0.977,-0.977 1.172,-2.832 0,-4.004c-1.171,-1.171 -3.026,-0.976 -4.003,0c-3.124,3.125 -5.272,4.687 -6.248,4.687c-0.586,0 -1.074,-0.293 -1.074,-1.465c-0,-4.491 2.538,-14.254 5.077,-19.429c0.488,-0.976 1.757,-0.391 1.269,0.586c-1.66,3.612 -3.027,7.908 -4.101,13.181c5.37,-5.956 10.35,-19.528 2.929,-19.528c-5.077,0 -9.373,11.814 -11.032,17.282c-4.98,7.616 -8.69,9.373 -10.35,9.373c-0.683,0 -1.172,-0.488 -1.172,-1.367c-0.195,-3.417 4.394,-10.545 8.983,-20.015c0.976,-1.953 0.391,-4.687 -2.246,-5.175c-1.464,-0.293 -3.222,0.098 -4.491,2.636c-2.831,5.273 -9.666,12.693 -16.989,14.45c-4.1,0.977 -2.929,6.932 1.367,5.858c2.637,-0.683 4.687,-1.659 6.347,-2.733Z" style="fill:#272a69;"/><path d="M508.136,128.502l1.172,-1.172c-0.098,-0.684 -0.098,-1.367 -0.098,-2.148c0,-2.05 0.391,-4.198 1.074,-6.249c-2.245,1.758 -4.003,3.417 -6.151,5.565c-0.976,0.977 -1.171,2.832 0,4.004c1.172,1.171 3.027,0.976 4.003,-0Zm30.951,-8.788c-0.684,0.196 -1.269,0.196 -1.758,0.196c-4.393,-0 -3.807,-6.444 -1.757,-8.69c0.976,-1.074 1.855,0.098 1.172,0.879c-1.465,1.66 -2.051,6.444 0.878,6.444c1.074,-0 1.855,-0.293 2.344,-0.586c2.538,-8.202 -0,-12.595 -3.906,-12.595c-9.763,-0 -13.474,24.214 4.394,20.21c4.1,-0.976 2.929,-6.932 -1.367,-5.858Zm-28.412,5.468c-0,6.053 3.222,10.447 10.349,10.447c6.249,-0 11.424,-3.515 14.743,-8.104c-2.538,-0.195 -4.491,-0.976 -5.956,-2.245c-2.245,2.733 -5.37,4.393 -8.201,4.393c-2.831,0 -4.296,-1.757 -4.296,-4.686c0,-6.054 4.979,-13.376 11.033,-15.817c1.464,-2.441 3.515,-4.394 5.956,-5.077c0.39,-0.098 0.781,-0.196 1.269,-0.196c-1.074,-0.683 -2.539,-1.074 -4.198,-1.074c-10.838,0 -20.699,12.302 -20.699,22.359Z" style="fill:#272a69;"/><path d="M546.8,122.839c1.269,-3.125 3.222,-6.347 4.003,-7.616c0.684,-1.074 1.855,-0.39 1.269,0.586c-1.464,2.929 -4.881,7.811 -4.881,13.181c-0,4.589 3.319,6.248 6.444,6.248c3.612,0 6.736,-1.366 9.763,-4.003c-0.293,-1.464 -0.39,-2.831 -0.097,-4.393c0.195,-1.074 1.659,-0.879 1.464,0.195c-0.683,4.296 0.976,8.201 5.468,8.201c3.808,0 6.737,-1.171 12.302,-6.736c0.976,-0.977 1.172,-2.832 -0,-4.004c-1.172,-1.171 -3.027,-0.976 -4.003,0c-3.125,3.125 -5.273,4.687 -6.249,4.687c-0.586,0 -1.074,-0.293 -1.074,-1.465c0,-4.491 2.539,-14.254 5.077,-19.429c0.488,-0.976 1.758,-0.391 1.269,0.586c-1.659,3.612 -3.026,7.908 -4.1,13.181c5.37,-5.956 10.349,-19.528 2.929,-19.528c-5.077,0 -9.373,11.814 -11.033,17.282c-4.98,7.616 -8.69,9.373 -10.349,9.373c-0.684,0 -1.172,-0.488 -1.172,-1.367c-0.195,-3.417 4.394,-10.545 8.982,-20.015c0.977,-1.953 0.391,-4.687 -2.245,-5.175c-1.465,-0.293 -3.222,0.098 -4.491,2.636c-2.832,5.273 -9.666,12.693 -16.989,14.45c-4.101,0.977 -2.929,6.932 1.367,5.858c2.636,-0.683 4.686,-1.659 6.346,-2.733Z" style="fill:#272a69;"/><text x="226.066px" y="134.75px" style="font-family:'SneakerScript', 'Sneaker Script';font-size:97.636px;fill:#272a69;"><tspan x="226.066px " y="134.75px ">s</tspan>tri<tspan x="394.878px " y="134.75px ">t</tspan>e y<tspan x="578.532px " y="134.75px ">r</tspan></text><g><text x="-0.343px" y="298.369px" style="font-family:'AlapaapRegular', 'Alapaap';font-size:187.774px;fill:#f5f6f6;">wisdom</text><text x="-0.343px" y="298.369px" style="font-family:'AlapaapOutline', 'Alapaap';font-size:187.774px;fill:#272a69;">wisdom</text></g><path d="M133.051,344.85c3.432,0 7.348,-3.916 11.308,-9.592c0.352,-0.528 0.22,-1.32 -0.528,-1.32c-0.396,0 -0.616,0.264 -1.276,0.968c-2.86,3.52 -6.248,6.776 -8.052,6.776c-0.484,0 -0.616,-0.308 -0.616,-0.66c-0,-1.144 6.996,-8.228 6.996,-11.704c-0,-1.892 -1.452,-3.432 -3.388,-3.432c-3.3,0 -6.776,3.036 -9.196,6.688l-0.088,-0.132c1.408,-2.596 1.98,-3.432 1.98,-4.268c-0,-0.66 -0.396,-1.012 -1.848,-1.012c-1.1,0 -1.848,0.528 -2.728,2.112l-5.412,9.988c-0.704,1.32 -1.452,2.684 -1.452,3.652c-0,0.924 0.528,1.496 1.716,1.496c0.924,0 1.672,-0.44 2.156,-1.364c4.664,-9.328 10.472,-14.212 13.508,-14.212c0.572,0 0.792,0.396 0.792,0.968c-0,1.892 -6.996,7.92 -6.996,11.748c-0,2.376 1.584,3.3 3.124,3.3Z" style="fill:#272a69;"/><path d="M250.707,332.486c-0,-0.616 -0.176,-1.1 -0.484,-1.452c1.012,-2.288 0.132,-4.84 -3.476,-4.84c-6.512,0 -13.728,6.952 -13.728,12.848c-0,3.256 2.464,5.72 5.676,5.72c4.18,0 8.316,-4.004 10.472,-7.788c3.212,-0.132 6.996,-2.684 8.932,-7.92c0.88,0.22 2.068,0.22 3.212,0.264c-2.112,3.608 -7.348,9.372 -7.348,12.496c-0,2.024 1.364,2.948 3.08,2.948c3.784,0 7.48,-3.828 11.44,-9.504c0.352,-0.528 0.264,-1.32 -0.528,-1.32c-0.396,0 -0.616,0.264 -1.232,0.968c-2.86,3.52 -5.896,6.556 -7.568,6.556c-0.572,0 -0.748,-0.352 -0.748,-0.66c-0,-1.364 3.828,-6.468 6.556,-10.076c0.572,-0.792 0.836,-1.452 0.836,-1.936c-0,-1.144 -0.66,-1.496 -1.452,-1.496c-1.012,0 -4.312,0.044 -5.588,-0.176c0.044,-0.176 0.22,-1.012 0.22,-1.54c-0,-1.056 -0.748,-1.584 -1.76,-1.584c-1.716,0 -2.816,1.276 -2.816,2.948c-0,1.1 1.188,1.716 1.54,1.716c-0.352,2.64 -2.948,5.412 -5.676,6.072c0.264,-0.836 0.44,-1.584 0.44,-2.244Zm-11.44,8.932c-1.32,0 -1.804,-0.924 -1.804,-2.244c-0,-4.444 6.38,-10.516 9.944,-10.516c1.232,0 1.716,0.748 1.452,1.804c-1.452,0 -3.564,1.804 -3.564,3.652c-0,0.924 0.44,1.848 1.408,2.376c-2.112,2.948 -5.852,4.928 -7.436,4.928Z" style="fill:#272a69;"/><text x="38.979px" y="344.41px" style="font-family:'SauberScript', 'Sauber Script';font-size:44px;fill:#272a69;">L<tspan x="67.799px " y="344.41px ">e</tspan>ar<tspan x="140.135px " y="344.41px "> </tspan>at W<tspan x="264.303px " y="344.41px ">k</tspan> Week<tspan x="383.895px " y="344.41px ">,</tspan> may 2<tspan x="505.995px 530.327px 549.291px " y="344.41px 344.41px 344.41px ">4-2</tspan>8 202<tspan x="680.939px " y="344.41px ">1</tspan></text><g id="logo-svg" serif:id="logo svg"><path d="M422.367,19.242c-2.784,0.049 -5.479,1.006 -7.67,2.725l-1.11,-2.221l-14.485,0l-0,5.959l1.69,-0.001c0.535,0 0.976,0.441 0.976,0.977c-0,0.017 -0.001,0.034 -0.002,0.051l0,30.594c0.001,0.016 0.002,0.031 0.002,0.047c-0,0.523 -0.431,0.953 -0.953,0.953l-1.713,-0.001l-0,6.014l18.968,0l-0,-6.014l-2.448,0c-0.028,0.003 -0.056,0.004 -0.085,0.004c-0.492,0 -0.897,-0.405 -0.897,-0.897c-0,-0.036 0.002,-0.071 0.006,-0.106l0,-7.657c0.44,0.38 2.98,2.475 8.24,2.475c8.179,0 14.452,-6.213 14.452,-16.293c-0.009,-9.003 -5.079,-16.609 -14.971,-16.609Zm-39.328,0c-2.784,0.047 -5.477,1.004 -7.666,2.725l-1.115,-2.221l-14.48,0l-0,5.959l1.628,0c0.019,-0.001 0.038,-0.002 0.057,-0.002c0.536,0 0.977,0.441 0.977,0.976c-0,0.018 -0.001,0.036 -0.002,0.053l0,30.594c0.001,0.016 0.001,0.031 0.001,0.047c0,0.523 -0.43,0.953 -0.953,0.953l-1.708,-0.001l-0,6.014l18.968,0l-0,-6.014l-2.461,0c-0.029,0.003 -0.057,0.004 -0.085,0.004c-0.493,0 -0.898,-0.405 -0.898,-0.897c0,-0.036 0.002,-0.071 0.007,-0.106l-0,-7.657c0.462,0.38 2.979,2.475 8.239,2.475c8.179,0 14.457,-6.213 14.457,-16.293c0,-9.003 -5.075,-16.609 -14.966,-16.609Zm-87.724,27.952c-0,2.253 -0.579,3.313 -1.966,3.313c-1.8,-0 -3.008,-2.387 -3.415,-4.677c3.956,-4.294 5.964,-10.419 5.964,-17.969c-0,-15.309 -7.62,-25.519 -24.585,-25.519c-14.434,0 -24.149,10.354 -24.149,25.015c0,16.964 10.062,25.444 24.584,25.444c1.878,0.009 3.753,-0.137 5.607,-0.434c1.476,3.543 5.293,7.98 11.654,7.98c7.189,-0 11.45,-4.081 11.45,-12.695l0,-2.313l-5.144,0l-0,1.855Zm163.707,-2.882c-5.325,0 -6.884,-3.84 -7.263,-5.552l20.707,0c1.332,-3.613 0.638,-8.493 -0.125,-10.714c-1.841,-5.32 -7.61,-9.179 -15.142,-9.179c-9.572,0 -17.057,6.153 -17.057,16.549c-0,12.172 8.878,17.182 16.738,17.182c6.592,-0 10.64,-1.726 15.54,-6.361l-4.506,-5.307c-3.489,2.693 -5.83,3.382 -8.892,3.382Zm-139.59,-24.566l-0,5.894l2.109,0c0.028,-0.002 0.056,-0.003 0.083,-0.003c0.539,-0 0.981,0.442 0.981,0.98c0,0.045 -0.003,0.089 -0.009,0.134l0,11.445c0,2.855 -1.295,4.816 -3.511,4.816c-2.6,0 -3.905,-1.615 -3.905,-6.356l0,-16.91l-15.341,0l0,5.894l1.661,0c0.035,-0.004 0.071,-0.006 0.106,-0.006c0.492,-0 0.897,0.405 0.897,0.897c0,0.029 -0.001,0.057 -0.004,0.085l0,10.248c0,10.525 3.174,15.47 12.746,15.47c4.881,0 7.194,-2.438 9.003,-4.881l2.008,3.993l11.686,-0l-0,-6.162l-2.087,-0c-0.024,0.001 -0.049,0.002 -0.073,0.002c-0.523,0 -0.953,-0.43 -0.953,-0.953c-0,-0.028 0.001,-0.057 0.004,-0.086l-0,-24.519l-15.401,0.018Zm21.082,0l-0,5.769l1.675,0c0.032,-0.003 0.064,-0.005 0.096,-0.005c0.49,0 0.893,0.403 0.893,0.893c0,0.028 -0.001,0.056 -0.004,0.084l0,17.825c0.001,0.015 0.001,0.03 0.001,0.046c0,0.507 -0.417,0.925 -0.925,0.925c-0.028,-0 -0.056,-0.001 -0.084,-0.004l-1.652,-0l-0,6.167l17.751,-0l0,-6.167l-2.022,-0c-0.032,0.003 -0.065,0.005 -0.098,0.005c-0.507,0 -0.925,-0.417 -0.925,-0.925c-0,-0.016 0,-0.031 0.001,-0.047l0,-24.519l-14.707,-0.047Zm158.322,8.869l-0,-10.451c-6.528,0 -8.179,2.595 -9.826,5.64l-1.902,-4.058l-11.903,0l-0,5.931l1.54,0c0.031,-0.002 0.062,-0.004 0.093,-0.004c0.587,0 1.074,0.473 1.092,1.059l-0,17.455c0.004,0.04 0.006,0.079 0.006,0.119c-0,0.609 -0.501,1.11 -1.11,1.11c-0.027,0 -0.054,-0.001 -0.081,-0.003l-1.605,0l-0,6.014l17.941,0l-0,-6.014l-2.054,0c-0.036,0.004 -0.073,0.006 -0.109,0.006c-0.558,-0 -1.018,-0.459 -1.018,-1.018c0,-0.051 0.004,-0.103 0.012,-0.154l-0,-7.638c-0,-5.579 3.053,-7.994 8.924,-7.994Zm-79.638,15.285c-2.405,0 -4.561,-3.294 -4.561,-7.605c-0.255,-5.011 2.026,-8.115 4.501,-8.115c2.776,0 4.562,3.993 4.562,7.795c-0,4.821 -1.837,7.925 -4.502,7.925Zm-39.328,0c-2.406,0 -4.561,-3.294 -4.561,-7.605c-0.255,-5.011 2.026,-8.115 4.501,-8.115c2.776,0 4.562,3.993 4.562,7.795c-0,4.821 -1.837,7.925 -4.502,7.925Zm-108.33,-1.735c-6.014,0 -8.596,-6.638 -8.596,-14.804c0,-8.165 2.693,-14.804 8.596,-14.804c5.903,-0 8.6,6.593 8.6,14.781c0,8.189 -2.59,14.827 -8.6,14.827Zm184.831,-14.753c4.057,0 4.626,3.239 4.691,5.621l-9.572,0c0.125,-1.577 1.013,-5.616 4.881,-5.616l-0,-0.005Zm-107.692,-25.662c4.078,-0 7.389,3.31 7.389,7.388c-0,4.078 -3.311,7.388 -7.389,7.388c-4.077,0 -7.388,-3.31 -7.388,-7.388c0,-4.078 3.311,-7.388 7.388,-7.388Z" style="fill:#180b3e;fill-rule:nonzero;"/></g></g></g></svg>